<?xml version="1.0" encoding="UTF-8" standalone="no"?>
<svg
   width="320"
   height="320"
   viewBox="0 0 320 319.99998"
   role="img"
   artist="Katerina Limpitsouni"
   source="https://undraw.co/"
   version="1.1"
   id="svg15"
   sodipodi:docname="receptionist_logo_v1.svg"
   inkscape:version="1.4 (e7c3feb1, 2024-10-09)"
   inkscape:export-filename="receptionist_logo.png"
   inkscape:export-xdpi="96"
   inkscape:export-ydpi="96"
   xmlns:inkscape="http://www.inkscape.org/namespaces/inkscape"
   xmlns:sodipodi="http://sodipodi.sourceforge.net/DTD/sodipodi-0.dtd"
   xmlns="http://www.w3.org/2000/svg"
   xmlns:svg="http://www.w3.org/2000/svg">
  <defs
     id="defs15" />
  <sodipodi:namedview
     id="namedview15"
     pagecolor="#ffffff"
     bordercolor="#000000"
     borderopacity="0.25"
     inkscape:showpageshadow="2"
     inkscape:pageopacity="0.0"
     inkscape:pagecheckerboard="0"
     inkscape:deskcolor="#d1d1d1"
     inkscape:zoom="1.3143302"
     inkscape:cx="86.736195"
     inkscape:cy="314.22849"
     inkscape:window-width="2560"
     inkscape:window-height="1387"
     inkscape:window-x="0"
     inkscape:window-y="25"
     inkscape:window-maximized="1"
     inkscape:current-layer="svg15" />
  <circle
     cx="230.55402"
     cy="225.90211"
     r="36.395748"
     fill="#2f2e41"
     id="circle4" />
  <path
     d="m 240.69394,190.5082 a 36.40078,36.40078 0 0 1 32.03936,53.66882 36.38707,36.38707 0 1 0 -60.4544,-39.98248 36.306,36.306 0 0 1 28.41504,-13.68634 z"
     fill="#2f2e41"
     id="path5" />
  <circle
     cx="162.54324"
     cy="118.91249"
     r="106.91249"
     fill="#2f2e41"
     id="circle5" />
  <path
     d="M 78.634377,52.578373 A 106.89327,106.89327 0 0 1 226.80154,41.368453 c -0.87427,-0.83106 -1.73926,-1.66886 -2.6477,-2.47643 A 106.91251,106.91251 0 0 0 82.087747,198.69926 c 0.90844,0.80758 1.84179,1.56848 2.76953,2.33935 a 106.89336,106.89336 0 0 1 -6.2229,-148.460237 z"
     fill="#2f2e41"
     id="path6" />
  <circle
     cx="161.63727"
     cy="156.06006"
     r="68.858887"
     fill="#ffb8b8"
     id="circle6" />
  <path
     d="m 196.81302,243.61211 -73.68846,3.31269 c 0,0 6.15038,38.10812 -33.715283,41.73229 -39.86566,3.62417 -76.10721,-7.24829 -90.6038202,19.93283 -14.4966098,27.18112 -8.2482898,123.96607 -8.2482898,123.96607 0,0 27.18115,97.85211 48.92605,112.34875 21.7449,14.49664 212.012903,-5.43622 212.012903,-5.43622 l 79.62843,-100.54372 -2.697,-77.53951 c -1.40839,-40.49105 -38.37693,-70.89154 -78.1935,-63.39829 q -1.17287,0.22073 -2.36205,0.47539 c 0,0 -8.74743,-6.53759 -32.74743,-18.53759 -14.67672,-7.33835 -18.31155,-36.31269 -18.31155,-36.31269 z"
     fill="#cacaca"
     id="path7" />
  <path
     d="m 36.859047,286.84502 c 0,0 17.5138,31.77787 10.26551,77.07978 -7.24829,45.30191 23.164,141.11428 23.164,141.11428 l 21.74494,-5.43622 c 0,0 -14.49662,-94.228 -10.87244,-115.9729 3.62418,-21.7449 4.62414,-85.91251 -13.49661,-96.78494 -18.12075,-10.87243 -30.8054,0 -30.8054,0 z"
     fill="#2f2e41"
     id="path8" />
  <path
     d="m 246.59738,303.50722 7.61682,200.62579 14.49658,9.06037 c 0,0 20.83887,-220.16727 9.96643,-220.16727 h -22.12249 a 9.97041,9.97041 0 0 0 -9.9704,9.97043 q 0,0.25548 0.0131,0.51068 z"
     fill="#2f2e41"
     id="path9" />
  <polygon
     points="357.196,126.928 427.685,126.928 423.336,105.183 432.034,126.928 443.269,126.928 443.269,58.069 323.672,58.069 323.672,126.928 339.619,126.928 359.914,105.183 "
     fill="#2f2e41"
     id="polygon10"
     transform="translate(-220.92725,11.916733)" />
  <ellipse
     cx="91.872314"
     cy="141.56343"
     rx="5.4362202"
     ry="9.9664202"
     fill="#ffb8b8"
     id="ellipse10" />
  <ellipse
     cx="231.40219"
     cy="141.56343"
     rx="5.4362202"
     ry="9.9664202"
     fill="#ffb8b8"
     id="ellipse11" />
</svg>
